<svg width="39" height="38" viewBox="0 0 39 38" fill="none" xmlns="http://www.w3.org/2000/svg">
<ellipse cx="19.3521" cy="18.868" rx="18.8683" ry="18.8683" fill="#5222D0"/>
<path d="M10.0634 28.705H14.0114V14.0974H10.0634V28.705ZM12.0374 7.64893C10.7214 7.64893 9.66858 8.70173 9.66858 10.0177C9.66858 11.3337 10.7214 12.3866 12.0374 12.3866C13.3534 12.3866 14.4062 11.3337 14.4062 10.0177C14.4062 8.70173 13.3534 7.64893 12.0374 7.64893ZM20.723 16.3346V14.0974H16.775V28.705H20.723V21.2038C20.723 16.9926 26.1187 16.7294 26.1187 21.2038V28.705H30.0667V19.7562C30.0667 12.6498 22.5655 12.913 20.723 16.3346Z" fill="#DBFFFF"/>
</svg>
